<svg width="13" height="13" viewBox="0 0 13 13" fill="none" xmlns="http://www.w3.org/2000/svg">
<g clip-path="url(#clip0)">
<path d="M12.7922 3.3025L12.3664 2.87371C12.2324 2.73979 12.0541 2.66602 11.8635 2.66602C11.673 2.66602 11.4945 2.73979 11.3605 2.87371L6.50291 7.73152L1.6397 2.86832C1.5059 2.7344 1.32738 2.66074 1.13693 2.66074C0.946471 2.66074 0.767852 2.7344 0.63394 2.86832L0.208002 3.29446C-0.0693339 3.57159 -0.0693339 4.023 0.208002 4.30012L5.99823 10.1112C6.13203 10.245 6.31034 10.3393 6.50248 10.3393H6.5047C6.69527 10.3393 6.87357 10.2449 7.00737 10.1112L12.7922 4.31587C12.9262 4.18207 12.9998 3.99837 13 3.80792C13 3.61735 12.9262 3.4362 12.7922 3.3025Z" fill="#1B1B1B"/>
</g>
<defs>
<clipPath id="clip0">
<rect width="13" height="13" fill="white"/>
</clipPath>
</defs>
</svg>
